<svg xmlns="http://www.w3.org/2000/svg" width="32" height="32" fill="none"><path fill="#94A3B8" d="M28.01 24.53A8.5 8.5 0 0 0 31 18.21c0-2.5-1.17-4.83-3.3-6.58A12.13 12.13 0 0 0 20 9c-2.9 0-5.64.94-7.7 2.63A8.48 8.48 0 0 0 9 18.21c0 2.5 1.17 4.84 3.3 6.59a12.12 12.12 0 0 0 8.86 2.58l.66.57A12.49 12.49 0 0 0 30 31h1v-2.13l-.3-.3a12.45 12.45 0 0 1-2.69-4.04Zm-4.88 1.9-1.32-1.14-.44.06c-.46.05-.91.08-1.37.08-4.96 0-9-3.24-9-7.22 0-3.97 4.04-7.21 9-7.21s9 3.24 9 7.21c0 1.99-.99 3.84-2.78 5.21l-.58.45.27.75a14.46 14.46 0 0 0 2.36 4.24 10.49 10.49 0 0 1-5.14-2.42Z"/><path fill="#94A3B8" d="M3.76 19.84a13.78 13.78 0 0 0 2.18-3.94l.26-.75-.57-.44A6.19 6.19 0 0 1 3 9.81C3 6.04 6.81 3 11.5 3c3.45 0 6.42 1.65 7.75 4.02a15.37 15.37 0 0 1 2.24.05 8.67 8.67 0 0 0-2.64-3.56A11.57 11.57 0 0 0 11.5 1c-2.77 0-5.38.9-7.35 2.51A8.1 8.1 0 0 0 1 9.81c0 2.23 1.02 4.39 2.83 6a11.77 11.77 0 0 1-2.54 3.8l-.29.3V22h1c1.85 0 3.67-.43 5.33-1.26a9.83 9.83 0 0 1-.32-2.1c-1 .59-2.1 1-3.25 1.2Z"/></svg>