<svg xmlns="http://www.w3.org/2000/svg" width="32" height="32" fill="none"><path fill="#94A3B8" d="m30.73 16.04-3.43-3.09 1.02-.84a4.92 4.92 0 0 0 .33-7.35 4.92 4.92 0 0 0-7.35.33l-.84 1.03-3.09-3.44-.04-.03a1.5 1.5 0 0 0-2.12 0l-4.1 4.1.08 1.48 2.07 1.69a2.94 2.94 0 0 1 .19 4.4 2.94 2.94 0 0 1-4.4-.2l-1.7-2.07-1.47-.07-4.46 4.45a1.5 1.5 0 0 0 0 2.13l10.96 10.96a5 5 0 0 0 7.08 0l11.3-11.32a1.5 1.5 0 0 0 0-2.12l-.03-.04ZM18.04 28.1a3 3 0 0 1-4.24 0L3.2 17.5l3.31-3.32 1 1.21v.01a4.92 4.92 0 0 0 7.35.33 4.92 4.92 0 0 0-.33-7.35l-1.22-1 2.94-2.95 3.5 3.9 1.52-.04 1.57-1.92c.23-.28.5-.51.8-.7a2.94 2.94 0 0 1 3.6.51 2.94 2.94 0 0 1-.2 4.4l-1.91 1.56-.04 1.52 3.9 3.5L18.03 28.1Z"/></svg>