<svg xmlns="http://www.w3.org/2000/svg" width="24" height="24" fill="none"><g clip-path="url(#a)"><path fill="#FFF" d="M23.24 10.88a9.69 9.69 0 0 0-.88-3.68c-.58-1.26-1.4-2.4-2.42-3.34A11.55 11.55 0 0 0 5.75 2.65a11.25 11.25 0 1 0 14.12 17.39l-1.05-1.08A9.76 9.76 0 1 1 12 2.25c5.29 0 9.75 4.12 9.75 9v1.69c0 1.34-1.18 2.44-2.63 2.44-1.44 0-2.62-1.1-2.62-2.44V7.5H15v1.25a4.69 4.69 0 1 0 .59 6.21 4.17 4.17 0 0 0 3.54 1.91 4.04 4.04 0 0 0 4.12-3.93v-2.06Zm-11.43 4.5a3.19 3.19 0 1 1 0-6.38 3.19 3.19 0 0 1 0 6.38Z"/></g><defs><clipPath id="a"><path fill="#FFF" d="M0 0h24v24H0z"/></clipPath></defs></svg>