<svg xmlns="http://www.w3.org/2000/svg" width="30" height="24" fill="none"><g clip-path="url(#a)"><path fill="#777" d="M26.43-.02c-.8-.02-2.65.26-5.74 2.32a22.23 22.23 0 0 0-11.1.13C5.15-.58 3.19.04 3.19.04c-1.27 3.2-.48 5.56-.24 6.15a8.91 8.91 0 0 0-2.42 6.23c0 1.92.21 3.63.75 5.13.03.11.02.09.07.19a9.29 9.29 0 0 0 .49 1.08c1.5 2.79 4.45 4.6 9.7 5.16h7.94c5.6-.55 8.3-2.36 9.53-5.17l.08-.18c.12-.29.22-.58.5-1.57.28-1 .4-2.72.4-4.64a9.08 9.08 0 0 0-2.71-6.64 8.6 8.6 0 0 0-.4-5.74s-.14-.05-.45-.05Zm-6.26 10.1c1.29 0 2.4.22 3.23 1.1A5.55 5.55 0 0 1 25.05 15c0 6.64-4.27 6.82-9.54 6.82s-9.54-.92-9.54-6.82c0-1.41.6-2.72 1.63-3.81 1.72-1.82 4.62-.86 7.91-.86 1.7 0 3.28-.25 4.66-.26Zm-9.82 1.96c-1.1 0-1.98 1.48-1.98 3.3 0 1.84.89 3.32 1.98 3.32 1.1 0 1.99-1.48 1.99-3.31s-.89-3.31-1.99-3.31Zm10.65 0c-1.1 0-1.98 1.48-1.98 3.3 0 1.84.89 3.32 1.98 3.32 1.1 0 1.99-1.48 1.99-3.31s-.9-3.31-1.99-3.31Z"/></g><defs><clipPath id="a"><path fill="#fff" d="M.53 0H30v24H.53z"/></clipPath></defs></svg>