<svg xmlns="http://www.w3.org/2000/svg" width="24" height="24" fill="none"><g clip-path="url(#a)"><path fill="#94a3b8" d="M4.7 0A4.72 4.72 0 0 0 0 4.7v14.6C0 21.88 2.12 24 4.7 24h14.6c2.58 0 4.7-2.12 4.7-4.7V4.7C24 2.13 21.87 0 19.3 0H4.7ZM5.9 3.97c1.24 0 2 .82 2.02 1.89 0 1.04-.78 1.88-2.05 1.88h-.02c-1.22 0-2-.84-2-1.88 0-1.07.8-1.89 2.05-1.89Zm10.68 5c2.38 0 4.17 1.56 4.17 4.91v6.25h-3.62V14.3c0-1.47-.53-2.47-1.84-2.47-1 0-1.6.68-1.86 1.33-.1.23-.12.56-.12.88v6.1H9.68s.05-9.89 0-10.91h3.62v1.54a3.6 3.6 0 0 1 3.27-1.8Zm-12.52.26h3.63v10.9H4.05V9.22Z"/></g><defs><clipPath id="a"><path fill="#fff" d="M0 0h24v24H0z"/></clipPath></defs></svg>