<svg xmlns="http://www.w3.org/2000/svg" width="24" height="24" fill="none"><g clip-path="url(#a)"><path fill="#bfdbfe" d="M0 11.64C0 4.95 5.24 0 12 0s12 4.95 12 11.64-5.24 11.64-12 11.64c-1.21 0-2.38-.16-3.47-.46a.96.96 0 0 0-.64.04L5.5 23.92a.96.96 0 0 1-1.34-.85l-.07-2.14a.96.96 0 0 0-.32-.68A11.39 11.39 0 0 1 0 11.64Zm8.32-2.19-3.53 5.6c-.33.53.33 1.13.83.75l3.79-2.87a.72.72 0 0 1 .87 0l2.8 2.1a1.8 1.8 0 0 0 2.6-.48l3.53-5.6c.34-.53-.32-1.13-.83-.75l-3.79 2.87a.72.72 0 0 1-.87 0l-2.8-2.1a1.8 1.8 0 0 0-2.6.48Z"/></g><defs><clipPath id="a"><path fill="#fff" d="M0 0h24v24H0z"/></clipPath></defs></svg>