<svg width="32" height="32" viewBox="0 0 32 32" fill="none" xmlns="http://www.w3.org/2000/svg">
<path d="M27.2859 7.5H22V4H2V25.5C2.00119 26.5605 2.423 27.5772 3.17289 28.3271C3.92278 29.077 4.9395 29.4988 6 29.5H18C19.0605 29.4988 20.0772 29.077 20.8271 28.3271C21.577 27.5772 21.9988 26.5605 22 25.5V25H27.2859C28.2706 24.9989 29.2146 24.6072 29.9109 23.9109C30.6072 23.2146 30.9989 22.2706 31 21.2859V11.2141C30.9989 10.2294 30.6072 9.28536 29.9109 8.58907C29.2146 7.89277 28.2706 7.50111 27.2859 7.5V7.5ZM10.0859 14.9309L12 16.8451V20.4309H8V16.8451L9.91419 14.9309H10.0859ZM29 21.2859C28.9995 21.7403 28.8187 22.176 28.4974 22.4974C28.176 22.8187 27.7403 22.9995 27.2859 23H20V25.5C19.9994 26.0303 19.7885 26.5386 19.4136 26.9136C19.0386 27.2885 18.5303 27.4994 18 27.5H6C5.46975 27.4994 4.96139 27.2885 4.58644 26.9136C4.2115 26.5386 4.0006 26.0303 4 25.5V6H9V13.0166L6 16.0166V22.4309H14V16.0166L11 13.0166V6H20V9.5H27.2859C27.7403 9.50051 28.176 9.68127 28.4974 10.0026C28.8187 10.324 28.9995 10.7597 29 11.2141V21.2859Z" fill="#94A3B8"/>
<path d="M26 11.25H20V21.25H26C26.3314 21.2496 26.6491 21.1178 26.8835 20.8835C27.1178 20.6491 27.2496 20.3314 27.25 20V12.5C27.2496 12.1686 27.1178 11.8509 26.8835 11.6165C26.6491 11.3822 26.3314 11.2504 26 11.25V11.25ZM25.25 19.25H22V13.25H25.25V19.25Z" fill="#94A3B8"/>
</svg>
