<svg xmlns="http://www.w3.org/2000/svg" width="32" height="32" fill="none"><path fill="#94A3B8" d="M26.6 5.13A15.23 15.23 0 0 0 16.01 1 16.8 16.8 0 0 0 5.76 4.44 12.02 12.02 0 0 0 1 14c0 3.76.97 6.18 3.05 7.63 1.75 1.21 4.28 1.73 8.45 1.73h1.86A1.64 1.64 0 0 1 16 25v3a2 2 0 0 0 2 2h5.67a2 2 0 0 0 1.23-.43c.61-.48 2.18-1.84 3.55-4.18A19.21 19.21 0 0 0 31 15.5c0-3.98-1.56-7.67-4.4-10.37Zm.13 19.24A13.1 13.1 0 0 1 23.67 28H18V25a3.64 3.64 0 0 0-3.64-3.64H12.5c-3.73 0-5.92-.41-7.3-1.38C3.68 18.93 3 17.08 3 14 3 7.11 9.62 3 16.02 3 23.3 3 29 8.5 29 15.5c0 3.33-.76 6.31-2.27 8.87Z"/><path fill="#94A3B8" d="M8 9a3.5 3.5 0 1 0 0 7 3.5 3.5 0 0 0 0-7Zm0 5a1.5 1.5 0 1 1 0-3 1.5 1.5 0 0 1 0 3Zm7-9.5a3.5 3.5 0 1 0 0 7 3.5 3.5 0 0 0 0-7Zm0 5a1.5 1.5 0 1 1 0-3 1.5 1.5 0 0 1 0 3ZM22.5 8a3.5 3.5 0 1 0 0 7 3.5 3.5 0 0 0 0-7Zm0 5a1.5 1.5 0 1 1 0-3 1.5 1.5 0 0 1 0 3Zm1 3.5a3.5 3.5 0 1 0 0 7 3.5 3.5 0 0 0 0-7Zm0 5a1.5 1.5 0 1 1 0-3 1.5 1.5 0 0 1 0 3Z"/></svg>