<svg width="24" height="24" viewBox="0 0 24 24" fill="none" xmlns="http://www.w3.org/2000/svg">
<path d="M11.9026 5.98083C11.3092 5.98083 10.7292 6.15678 10.2359 6.48643C9.74253 6.81607 9.35801 7.28461 9.13095 7.83278C8.90389 8.38096 8.84448 8.98416 8.96023 9.56611C9.07599 10.148 9.36171 10.6826 9.78127 11.1022C10.2008 11.5217 10.7354 11.8074 11.3173 11.9232C11.8993 12.0389 12.5025 11.9795 13.0506 11.7525C13.5988 11.5254 14.0674 11.1409 14.397 10.6475C14.7266 10.1542 14.9026 9.57418 14.9026 8.98083C14.9017 8.18546 14.5853 7.42293 14.0229 6.86051C13.4605 6.2981 12.698 5.98174 11.9026 5.98083ZM11.9026 10.4808C11.6059 10.4808 11.3159 10.3929 11.0692 10.228C10.8226 10.0632 10.6303 9.82895 10.5168 9.55486C10.4032 9.28077 10.3735 8.97917 10.4314 8.6882C10.4893 8.39723 10.6322 8.12995 10.8419 7.92017C11.0517 7.7104 11.319 7.56753 11.61 7.50966C11.9009 7.45178 12.2025 7.48148 12.4766 7.59502C12.7507 7.70855 12.985 7.90081 13.1498 8.14748C13.3146 8.39415 13.4026 8.68416 13.4026 8.98083C13.4021 9.37852 13.2439 9.75978 12.9627 10.041C12.6815 10.3222 12.3003 10.4804 11.9026 10.4808Z" fill="#FFFFFF"/>
<path d="M17.6674 3.2117C16.242 1.78672 14.3394 0.940225 12.3266 0.835587C10.3138 0.73095 8.33366 1.37559 6.76824 2.64509C5.20282 3.91459 4.16314 5.71895 3.84985 7.70994C3.53656 9.70092 3.97187 11.7374 5.07178 13.4263L10.7393 22.1269C10.8654 22.3205 11.0379 22.4796 11.241 22.5897C11.4441 22.6998 11.6716 22.7574 11.9026 22.7574C12.1337 22.7574 12.3611 22.6998 12.5642 22.5897C12.7674 22.4796 12.9398 22.3205 13.0659 22.1269L18.7336 13.4263C19.7542 11.8596 20.2052 9.98968 20.0111 8.12999C19.817 6.2703 18.9895 4.53385 17.6674 3.2117ZM17.4768 12.6075L11.9026 21.1645L6.3284 12.6075C4.62215 9.98819 4.98811 6.48287 7.19854 4.27234C7.81629 3.65458 8.54966 3.16454 9.35679 2.83021C10.1639 2.49588 11.029 2.3238 11.9026 2.3238C12.7763 2.3238 13.6414 2.49588 14.4485 2.83021C15.2556 3.16454 15.989 3.65458 16.6067 4.27234C18.8172 6.48287 19.1831 9.98819 17.4768 12.6075Z" fill="#FFFFFF"/>
</svg>
