<svg width="128" height="128" viewBox="0 0 128 128" fill="none" xmlns="http://www.w3.org/2000/svg">
<g clip-path="url(#clip0_809_1287)">
<rect width="128" height="128" rx="12" fill="url(#paint0_radial_809_1287)"/>
<path fill-rule="evenodd" clip-rule="evenodd" d="M77.1273 91.8561L72.0896 96.2641C70.8854 97.3179 70.4585 98.9441 70.8841 100.399C69.745 100.245 68.5474 100.581 67.6344 101.423L63.9399 104.834C62.7963 105.889 62.3971 107.475 62.8136 108.897L55.1156 113.354C54.4363 113.747 53.5897 113.707 52.951 113.251L49.1829 110.559C48.094 109.782 48.0612 108.175 49.1175 107.353L54.7273 102.99C55.4031 102.464 55.4653 101.465 54.8599 100.86C54.3647 100.365 53.5828 100.303 53.0164 100.715L44.0916 107.206C43.432 107.686 42.547 107.717 41.8553 107.285L37.7136 104.696C36.4602 103.913 36.4602 102.087 37.7136 101.304L49.5402 93.9124C50.287 93.4457 50.4055 92.4055 49.7828 91.7828C49.3262 91.3263 48.6127 91.2507 48.0705 91.6015L33.0465 101.323C32.4059 101.737 31.5853 101.751 30.931 101.359L24.679 97.6075C23.4278 96.8567 23.3757 95.0621 24.5813 94.24L42.6165 81.9433C43.335 81.4534 43.4309 80.431 42.816 79.8161C42.3431 79.3432 41.6001 79.275 41.049 79.6538L19.2743 94.624C18.5238 95.1399 17.5196 95.0837 16.8314 94.4873L12.3689 90.6198C11.4069 89.786 11.4583 88.2776 12.4748 87.5113L40.5937 66.314L55.9791 55.1246L62.359 56.3208L69.243 65.6345C70.5244 67.3682 72.9493 67.7745 74.7258 66.5531L79.5327 63.2484C81.3156 62.0227 81.8007 59.6016 80.6278 57.7837L72.0075 44.4222C71.5813 43.7616 70.9699 43.2412 70.2496 42.9261L60.9598 38.8618L67.9344 38.0647C68.3041 38.0224 68.6782 38.0842 69.0148 38.2429L94.1937 50.1197C94.7069 50.3618 95.2987 50.3745 95.8218 50.1546L126.833 37.1208C128.122 36.579 129.555 37.4933 129.607 38.8905L130.948 75.089C130.979 75.9349 130.474 76.7089 129.688 77.0216L108.311 85.5175C107.051 84.1366 104.957 83.7932 103.301 84.7872L99.2319 87.2285C98.227 87.8315 97.5839 88.8042 97.3691 89.8662L96.5444 90.1939L94.3042 87.655C92.8574 86.0153 90.362 85.8414 88.7017 87.2645L84.7327 90.6665C84.0041 91.291 83.5557 92.1201 83.3988 92.9955L82.8572 92.3335C81.4254 90.5836 78.8289 90.3672 77.1273 91.8561ZM94.5697 90.9788L92.8045 88.9783C92.0811 88.1584 90.8334 88.0714 90.0033 88.783L86.0342 92.185C85.1895 92.9091 85.0981 94.1833 85.8307 95.0205L86.1508 95.3864L91.873 92.0736C91.9575 92.0246 92.0456 91.9819 92.1364 91.9458L94.5697 90.9788ZM83.8573 96.7142L81.3093 93.6C80.5934 92.725 79.2951 92.6168 78.4443 93.3613L73.4066 97.7693C72.6149 98.462 72.4952 99.6497 73.1328 100.487L74.421 102.177L83.8573 96.7142ZM72.2119 103.456L71.8526 103.046C71.1116 102.199 69.8179 102.13 68.9909 102.893L65.2964 106.303C64.8571 106.709 64.6375 107.271 64.6538 107.832L72.2119 103.456ZM106.145 86.3782L101.38 88.2722L104.33 86.5022C104.9 86.1598 105.575 86.1348 106.145 86.3782ZM57.0035 39.3139L69.4479 44.7584C69.8081 44.9159 70.1138 45.1761 70.3269 45.5064L78.9472 58.8679C79.5337 59.7769 79.2911 60.9874 78.3997 61.6003L73.5928 64.905C72.7045 65.5157 71.4921 65.3126 70.8514 64.4457L63.9674 55.1321C63.6671 54.7258 63.2241 54.4482 62.7276 54.3551L56.3477 53.1589C55.8067 53.0574 55.2479 53.1834 54.8028 53.5071L44.0316 61.3407L50.6014 41.2205C50.8443 40.4769 51.4983 39.9431 52.2756 39.8543L57.0035 39.3139Z" fill="#FEF08A"/>
<path d="M81.3092 93.6C80.5933 92.725 79.2951 92.6168 78.4443 93.3613L73.4066 97.7693C72.6149 98.462 72.4952 99.6497 73.1327 100.487L78.8186 107.949C79.476 108.812 80.7012 108.994 81.5805 108.359L87.278 104.244C88.2118 103.569 88.3844 102.247 87.6549 101.356L81.3092 93.6Z" fill="#111827"/>
<path d="M71.8526 103.046C71.1115 102.199 69.8178 102.13 68.9909 102.893L65.2964 106.303C64.5557 106.987 64.4396 108.115 65.0255 108.935L67.9362 113.011C68.5384 113.854 69.6847 114.097 70.5777 113.572L75.4193 110.724C76.4999 110.088 76.7359 108.627 75.9104 107.683L71.8526 103.046Z" fill="#111827"/>
<path d="M92.8045 88.9783C92.0811 88.1584 90.8334 88.0714 90.0032 88.783L86.0342 92.185C85.1895 92.9091 85.098 94.1833 85.8306 95.0205L90.2919 100.119C90.9753 100.9 92.1428 101.029 92.9797 100.415L97.2348 97.2945C98.1829 96.5992 98.3296 95.2401 97.5517 94.3585L92.8045 88.9783Z" fill="#111827"/>
<path d="M99.6025 91.7323C98.9984 90.783 99.296 89.5224 100.261 88.9435L104.33 86.5022C105.259 85.9445 106.464 86.2289 107.046 87.1435L108.398 89.2676C109.002 90.2169 108.704 91.4775 107.739 92.0564L103.671 94.4977C102.741 95.0554 101.536 94.771 100.954 93.8564L99.6025 91.7323Z" fill="#111827"/>
<path d="M30.2427 50.1211C29.7675 50.3635 29.215 50.4061 28.7083 50.2392L-9.09683 37.7912C-10.3233 37.3874 -11.6053 38.2342 -11.7151 39.5208L-14.8569 76.3254C-14.9396 77.2935 -14.3144 78.181 -13.375 78.4292L10.5814 84.7573C11.1627 84.9108 11.7823 84.7947 12.2686 84.4411L54.8027 53.5071C55.2478 53.1834 55.8067 53.0574 56.3476 53.1589L62.7275 54.3551C63.2241 54.4482 63.667 54.7258 63.9673 55.1321L70.8513 64.4457C71.492 65.3126 72.7045 65.5157 73.5927 64.905L78.3997 61.6003C79.291 60.9874 79.5336 59.7769 78.9472 58.8679L70.3269 45.5064C70.1138 45.1761 69.808 44.9159 69.4479 44.7584L54.8674 38.3794C54.3184 38.1392 53.6906 38.1578 53.1568 38.4302L30.2427 50.1211Z" fill="#111827"/>
</g>
<defs>
<radialGradient id="paint0_radial_809_1287" cx="0" cy="0" r="1" gradientUnits="userSpaceOnUse" gradientTransform="translate(64 128) rotate(-90) scale(64)">
<stop stop-color="#475569"/>
<stop offset="1" stop-color="#475569" stop-opacity="0"/>
</radialGradient>
<clipPath id="clip0_809_1287">
<rect width="128" height="128" rx="12" fill="white"/>
</clipPath>
</defs>
</svg>
